<?xml version="1.0" standalone="no"?>
<!DOCTYPE svg PUBLIC "-//W3C//DTD SVG 20010904//EN" "http://www.w3.org/TR/2001/REC-SVG-20010904/DTD/svg10.dtd">
<svg version="1.0" xmlns="http://www.w3.org/2000/svg"
 width="107.000000pt" height="107.000000pt" viewBox="0 0 512 512"
 preserveAspectRatio="xMidYMid meet">
<g fill="#000000" stroke="none">
  <path d="M71.7871 457.731H127.216L128.864 467.21C98.2308 472.293 73.0234 475.246 53.2422 476.07C49.9453 471.262 48.2969 462.539 48.2969 449.901V293.3C48.2969 276.953 39.0244 265.826 20.4795 259.919L22.9521 253.943C32.4307 251.059 39.0244 247.624 42.7334 243.641C46.4424 239.657 48.2969 232.72 48.2969 222.829V68.2881C48.2969 55.6501 49.9453 46.9271 53.2422 42.1191C71.9245 42.6686 97.1318 45.6221 128.864 50.9795L127.216 60.252H71.7871V176.261C71.7871 199.201 70.2074 216.235 67.0479 227.362C63.8883 238.352 57.638 247.762 48.2969 255.592L47.0605 258.271C55.7148 267.337 61.9652 278.67 65.8115 292.27C69.7952 305.732 71.7871 324.757 71.7871 349.347V457.731ZM384.578 457.731H439.801V349.347C439.801 324.757 441.793 305.732 445.776 292.27C449.76 278.67 456.079 267.337 464.733 258.271L463.497 255.592C454.156 247.762 447.837 238.283 444.54 227.156C441.381 216.029 439.801 199.064 439.801 176.261V60.252H384.578L382.93 50.9795C414.662 45.6221 439.869 42.6686 458.552 42.1191C461.849 46.9271 463.497 55.6501 463.497 68.2881V222.829C463.497 232.72 465.352 239.657 469.061 243.641C472.77 247.624 479.363 251.059 488.842 253.943L491.314 259.919C472.77 265.826 463.497 276.953 463.497 293.3V449.901C463.497 462.539 461.849 471.262 458.552 476.07C438.771 475.246 413.563 472.293 382.93 467.21L384.578 457.731Z"/>
</g>
</svg>
